<?xml version="1.0" encoding="UTF-8"?>
<svg xmlns="http://www.w3.org/2000/svg" id="Layer_1" data-name="Layer 1" viewBox="0 0 254.44 145.17">
  <defs>
    <style>.cls-1,.cls-5{fill:#ed1c24;}.cls-1{fill-rule:evenodd;}.cls-2{fill:#ffdf00;}.cls-3{fill:#231f20;}.cls-4{fill:#fff;}</style>
  </defs>
  <path class="cls-1" d="M142.6,34.45c-17.22-1-48.92-8.44-72.49-7.56C34.91,28.22,23.34,33.7.55,43.4V144.74c14.87-8,33.3-19.57,63.34-22.24,20-1.78,53.18.14,68.92,3.56,20.46,4.45,44.41,3.62,63.15.89,21.35-3.11,36.91-12.9,44.8-17.47V4.3c-5.22,2.58-17.33,13.42-35,20.37C193.29,29.56,166.61,35.79,142.6,34.45Z" transform="translate(-0.55 0.43)"></path>
  <path class="cls-2" d="M64.14,116.73C38.54,119,21.2,127.39,6.63,135.07V46.31c19.37-8,37.7-13.43,67.49-14.08,20.45-.44,48.73,4.72,65.37,6.23,19.92,1.81,44.39-1.46,62.7-7.56,16-5.34,24.9-12,33-16.76l-.58,93.24c-4.89,3.56-23.12,12-44.47,15.12-18,2.62-47.14.89-60.48-2.22S83.2,115.08,64.14,116.73Z" transform="translate(-0.55 0.43)"></path>
  <path class="cls-1" d="M49.29,70.14c.35-2.5-.29-3.78-1-4.43v-.07c4.28-.57,6.85-1.28,11.71-1.57-.14,1.29-.43,3.5-.43,3.5h.07c2.29-3.92,7.11-4.49,8-4.57a6.13,6.13,0,0,1,2.57.15L68.9,72.38h-.07a3.7,3.7,0,0,0-2.36-.29,8.06,8.06,0,0,0-6.58,6.42L60.18,99a4.54,4.54,0,0,0,1.58,4.35v.07a145.27,145.27,0,0,0-15.07,2.35v-.07a7.47,7.47,0,0,0,2.64-4.92l0-30.6Z" transform="translate(-0.55 0.43)"></path>
  <path class="cls-1" d="M74.51,68.66c.21-1.64.07-3.64-.86-4.57V64a113.44,113.44,0,0,1,12.21.29l-.45,34.38A5.38,5.38,0,0,0,87,103.26v.07a131.47,131.47,0,0,0-15.07.07v-.07a6.24,6.24,0,0,0,2.71-4.57l-.11-30.1Z" transform="translate(-0.55 0.43)"></path>
  <path class="cls-1" d="M80,57.05c3.38,0,6.26-2.29,6.45-5.1s-2.49-5.09-5.87-5.09S74.27,49.15,74.08,52s2.49,5.1,5.87,5.1Z" transform="translate(-0.55 0.43)"></path>
  <path class="cls-1" d="M103.7,62.48a65.44,65.44,0,0,0,8.63.52l-.09,10.45h-.07a12.19,12.19,0,0,0-8.79-4.71c-3.78-.29-5.54,2.09-5.32,3.79.36,2.71,3.09,3,7.44,6,5.06,3.42,9.29,6,9.79,11,1.19,12.13-7.81,15.3-12.91,14.78-5.82-.53-7.11-1.57-10.26-1.66a5,5,0,0,0-1.88.27l0-11.55.13,0a13.14,13.14,0,0,0,9.9,5.23c3,.18,5.76-.67,5.49-3.47-.2-2-1.2-2.21-8.24-6.39C92.9,84,90.06,81.1,89.56,76c-.82-8.24,5.86-14.32,14.14-13.49Z" transform="translate(-0.55 0.43)"></path>
  <path class="cls-1" d="M208.78,68.57c.25-1.95,2.45-3,5.15-3.5,4.4-.71,7.9,1.51,8.49,2.46l.06-.08,1.12-11.39c-.33.15-1.18.31-2,.55s-4,.47-8.36,1.57c-9.13,2.28-15.55,7.3-14.93,15.4.54,7.13,3.5,9.61,8.24,11,5.87,1.79,8.85,2.06,9.26,5.36.54,4.29-4,5.7-7,6.17-5.26.87-11.15-3.26-11.87-4.6h-.07c-1.31,1.73-6.18,8-11.71,8.9s-7.42-3.71-7.36-10.94l16.31-6.6a29,29,0,0,0,.27-4.16c0-6.68-4.92-16-15-13.07-7.57,2.16-13.8,9-13.8,25.4,0,17.2,10.39,17.91,16.11,17a29.78,29.78,0,0,0,14-6c3.94,2,9.56,2.1,14.36,1.07,6.84-1.41,15.23-6.07,15.23-18.32,0-7.41-4.94-9.06-10.08-10.5C211.3,73.25,208.37,71.87,208.78,68.57ZM184.29,80.49l-7.37,2.59c.72-4.87,2.37-10,5-10.36,2.89-.47,2.56,6.2,2.37,7.77Z" transform="translate(-0.55 0.43)"></path>
  <path class="cls-1" d="M155.84,63.47c3.43-.15,5.91-2.61,5.61-5.57s-3.4-5.26-6.77-5.11-6,2.62-5.61,5.58,3.33,5.19,6.77,5.1Z" transform="translate(-0.55 0.43)"></path>
  <path class="cls-1" d="M162.23,105.26l-.61-35.72a120.39,120.39,0,0,1-13.25-.37l-.06.09c1.06,1.16,1.45,3.37,1.47,5.22l.42,31.37c0,2-.66,3.38-.93,3.33s-1.33-1.29-1.94-3.64l-4.87-15.1c-.84-3.2-3.05-6.88-7.15-7.6a9,9,0,0,0-3.62-.06l-.07-.07c.38-.69,3-6.06,6.33-5.41a9.35,9.35,0,0,1,4.6,2.83h.07L147,72c-2.89-2.72-4.67-3.39-6.48-3.66-4.77-.88-8.49,3.25-10.87,7.64l-.38-28.33-13.83-1.28v.08a8.64,8.64,0,0,1,2,5.55l.83,48.8c0,3.13-1,4-1.86,4.81v.08c4.3.78,15.72,1.62,15.72,1.62l0-.16a8.63,8.63,0,0,1-2.09-5.47l-.23-12.38.13,0c.87.14,2.85.6,3,1.63l3.29,11.67a10.21,10.21,0,0,0,3.58,5.47c3.75,3.75,17.81,2.67,24.31,2.55v-.08a8.21,8.21,0,0,1-2-5.23Z" transform="translate(-0.55 0.43)"></path>
  <path class="cls-1" d="M42.11,46.35c-9.72,2.35-8.57,5-23.71,8.63v.07c1.14.57,2.14,3.32,1.86,5.81L20,109.91a8.67,8.67,0,0,1-3.15,5.49l.07.14a123.17,123.17,0,0,1,17.51-4.67v-.07a4.86,4.86,0,0,1-2.36-4.56l.57-28s4.78-1.07,8.07-1.49c1.5-.15,2.93-.07,3.29.42h.07s1-8.41,1.14-9.62c-4.93.78-9.15,1.64-11.57,2.21l-.11-10.64c4.07-1.28,4.9-2.72,8.85-3.56,3.72-.8,9.22.21,10,1.28h.07L55.11,48c-3.07-2.57-10.21-2.33-13-1.68Z" transform="translate(-0.55 0.43)"></path>
  <path class="cls-1" d="M250,105.12a5,5,0,1,1,5-5,5,5,0,0,1-5,5v-.78a4.15,4.15,0,0,0,4.14-4.21A4.09,4.09,0,0,0,250,96a4.15,4.15,0,0,0-4.21,4.13,4.21,4.21,0,0,0,4.21,4.21v.78Z" transform="translate(-0.55 0.43)"></path>
  <path class="cls-1" d="M248.91,103h-.86V97.42h2.22c1.28,0,1.93.29,1.93,1.43a1.33,1.33,0,0,1-1.43,1.5l1.5,2.64h-1l-1.36-2.57h-1v-.86h1.36c.64,0,1.07-.07,1.07-.71s-.36-.64-1.07-.64h-1.36V103Z" transform="translate(-0.55 0.43)"></path>
  <polygon class="cls-3" points="105.47 17.91 18.98 17.91 18.98 0.05 105.47 0.05 105.47 17.91 105.47 17.91"></polygon>
  <path class="cls-3" d="M110.33,15.65h0a1.82,1.82,0,0,1-.54,1.31,1.84,1.84,0,0,1-1.31.55h0a1.86,1.86,0,0,1-1.86-1.86h0a1.86,1.86,0,0,1,.54-1.31h0a1.85,1.85,0,0,1,1.32-.55h0a1.86,1.86,0,0,1,1.85,1.86Zm-.4,0h0a1.47,1.47,0,0,0-.43-1,1.43,1.43,0,0,0-1-.43h0a1.45,1.45,0,0,0-1,.43h0a1.46,1.46,0,0,0-.42,1h0a1.45,1.45,0,0,0,1.46,1.46h0a1.43,1.43,0,0,0,1-.43,1.47,1.47,0,0,0,.43-1Z" transform="translate(-0.55 0.43)"></path>
  <path class="cls-3" d="M107.73,14.54a2.58,2.58,0,0,1,.58-.06,1,1,0,0,1,.69.2.6.6,0,0,1,.18.45.62.62,0,0,1-.44.59h0a.6.6,0,0,1,.35.48,4.54,4.54,0,0,0,.17.64H109a2.56,2.56,0,0,1-.15-.56c-.07-.33-.2-.45-.48-.46H108v1h-.31V14.54ZM108,15.6h.31c.32,0,.53-.17.53-.44s-.22-.44-.54-.44a1,1,0,0,0-.3,0v.85Z" transform="translate(-0.55 0.43)"></path>
  <path class="cls-4" d="M26.2,8.65c.33.06.61.1.86.13a5.43,5.43,0,0,0,.63.05,2.21,2.21,0,0,0,1.63-.71A2.49,2.49,0,0,0,30,6.31a3.12,3.12,0,0,0-.33-1.42,2.09,2.09,0,0,0-.92-1,2.77,2.77,0,0,0-1.36-.33,5.59,5.59,0,0,0-1.19.16V8.65Zm0,.5v3.43A2.3,2.3,0,0,0,26.46,14a1.34,1.34,0,0,0,1,.38H28v.32H22.71v-.32h.46a1.25,1.25,0,0,0,1.11-.49,2.58,2.58,0,0,0,.19-1.27V5a2.41,2.41,0,0,0-.25-1.38,1.39,1.39,0,0,0-1-.38h-.46V2.88h4.51a8.26,8.26,0,0,1,2.6.33,3.55,3.55,0,0,1,1.6,1.1,2.7,2.7,0,0,1,.65,1.83,3.05,3.05,0,0,1-1,2.35,4,4,0,0,1-2.81.9,8.51,8.51,0,0,1-1-.06q-.51-.06-1.11-.18Z" transform="translate(-0.55 0.43)"></path>
  <path class="cls-4" d="M43.21,3.33V3h4.06v.31h-.43a1.17,1.17,0,0,0-1.05.58,2.6,2.6,0,0,0-.18,1.23V9.85a8.46,8.46,0,0,1-.34,2.72,3.46,3.46,0,0,1-1.37,1.65,4.86,4.86,0,0,1-2.76.69,5.23,5.23,0,0,1-2.9-.66,3.65,3.65,0,0,1-1.4-1.77,10.06,10.06,0,0,1-.27-2.87V5.07a2.21,2.21,0,0,0-.3-1.4,1.19,1.19,0,0,0-1-.34h-.44V3h5v.31h-.45a1.14,1.14,0,0,0-1,.46,2.41,2.41,0,0,0-.22,1.28v5.06a10.2,10.2,0,0,0,.13,1.55A3.19,3.19,0,0,0,38.79,13a2.42,2.42,0,0,0,.94.81,3.32,3.32,0,0,0,1.52.31,4.23,4.23,0,0,0,2-.49,2.68,2.68,0,0,0,1.23-1.27,7.14,7.14,0,0,0,.34-2.63V5.07a2.37,2.37,0,0,0-.24-1.36,1.25,1.25,0,0,0-1-.38Z" transform="translate(-0.55 0.43)"></path>
  <path class="cls-4" d="M54.42,8.7h.48A3.74,3.74,0,0,0,57.41,8a2.31,2.31,0,0,0,.84-1.84,2.42,2.42,0,0,0-.68-1.78,2.44,2.44,0,0,0-1.81-.69,7.57,7.57,0,0,0-1.34.17V8.7Zm8.3,6H59.59l-4-5.47h-1.2v3.41A2.41,2.41,0,0,0,54.66,14a1.22,1.22,0,0,0,1,.37h.45v.32h-5V14.4h.44a1.14,1.14,0,0,0,1.05-.48,2.69,2.69,0,0,0,.18-1.26V5.08a2.41,2.41,0,0,0-.24-1.37,1.25,1.25,0,0,0-1-.38H51.1V3h4.26a10.15,10.15,0,0,1,2.74.27,3.09,3.09,0,0,1,1.5,1A2.63,2.63,0,0,1,60.22,6a2.71,2.71,0,0,1-.71,1.87A4,4,0,0,1,57.33,9l2.42,3.35a5.91,5.91,0,0,0,1.42,1.54,3.54,3.54,0,0,0,1.55.48v.32Z" transform="translate(-0.55 0.43)"></path>
  <path class="cls-4" d="M71.07,14.4v.32h-5V14.4h.41A1.24,1.24,0,0,0,67.54,14a2.55,2.55,0,0,0,.21-1.32V5.08a4.05,4.05,0,0,0-.11-1.17.8.8,0,0,0-.36-.37,1.58,1.58,0,0,0-.79-.21h-.41V3h5v.31h-.42a1.25,1.25,0,0,0-1,.42,2.62,2.62,0,0,0-.21,1.33v7.58a4.05,4.05,0,0,0,.11,1.17.8.8,0,0,0,.36.37,1.56,1.56,0,0,0,.78.2Z" transform="translate(-0.55 0.43)"></path>
  <path class="cls-4" d="M75.58,3.08h3.18L86,11.88V5.12a2.35,2.35,0,0,0-.24-1.35,1.29,1.29,0,0,0-1-.37h-.41V3.08h4.1V3.4H88a1.2,1.2,0,0,0-1.06.45,2.63,2.63,0,0,0-.19,1.27V15H86.4L78.64,5.55V12.8a2.31,2.31,0,0,0,.24,1.35,1.29,1.29,0,0,0,1,.37h.42v.32H76.21v-.32h.41a1.23,1.23,0,0,0,1.08-.45,2.63,2.63,0,0,0,.19-1.27V4.63a5.26,5.26,0,0,0-.77-.79,2.86,2.86,0,0,0-.78-.36,2.82,2.82,0,0,0-.76-.08V3.08Z" transform="translate(-0.55 0.43)"></path>
  <path class="cls-4" d="M98.15,10.08l-2-4.9L94,10.08Zm.28.66H93.71l-.82,1.9a3.15,3.15,0,0,0-.3,1.06.61.61,0,0,0,.26.49,2.32,2.32,0,0,0,1.14.27v.33H90.17v-.33a2.07,2.07,0,0,0,1-.35,5.47,5.47,0,0,0,1-1.74l4.31-10h.28L101,12.47a4.63,4.63,0,0,0,.92,1.58,1.86,1.86,0,0,0,1.16.41v.33H98.27v-.33a1.75,1.75,0,0,0,1-.24.63.63,0,0,0,.25-.5,3.75,3.75,0,0,0-.36-1.25l-.71-1.73Z" transform="translate(-0.55 0.43)"></path>
  <path class="cls-5" d="M19,17.48H.85V-.43H19.17V17.48ZM1.23,17.11H18.8V-.06H1.23V17.11Z" transform="translate(-0.55 0.43)"></path>
  <polygon class="cls-5" points="6.82 6.51 1.5 6.51 1.5 1.2 6.82 1.2 6.82 6.51 6.82 6.51"></polygon>
  <polygon class="cls-5" points="12 11.63 6.68 11.63 6.68 6.31 12 6.31 12 11.63 12 11.63"></polygon>
  <polygon class="cls-5" points="17.11 6.51 11.8 6.51 11.8 1.2 17.11 1.2 17.11 6.51 17.11 6.51"></polygon>
  <polygon class="cls-5" points="6.82 16.74 1.5 16.74 1.5 11.42 6.82 11.42 6.82 16.74 6.82 16.74"></polygon>
  <polygon class="cls-5" points="17.11 16.74 11.8 16.74 11.8 11.42 17.11 11.42 17.11 16.74 17.11 16.74"></polygon>
</svg>
