<?xml version="1.0" encoding="UTF-8"?>
<svg xmlns="http://www.w3.org/2000/svg" id="svg2" viewBox="0 0 548.87 95">
  <defs>
    <style>.cls-1{fill:#fff;}.cls-2{fill:#231f20;}.cls-3{fill:#ec1e27;}</style>
  </defs>
  <rect class="cls-1" width="534" height="95"></rect>
  <g id="g10">
    <g id="g12">
      <path id="path16" class="cls-1" d="M544.59,7.78h.58c.69,0,1.24-.23,1.24-.78s-.36-.82-1.14-.82a2.48,2.48,0,0,0-.68.07Zm0,3h-1.24V5.43a15.34,15.34,0,0,1,2-.16,2.89,2.89,0,0,1,1.83.42,1.36,1.36,0,0,1-.56,2.42v.06c.52.16.78.58.94,1.3a5.05,5.05,0,0,0,.39,1.31h-1.3a4.27,4.27,0,0,1-.42-1.31c-.1-.55-.42-.81-1.11-.81h-.58ZM541.27,8a4.15,4.15,0,0,0,4.16,4.26A4.09,4.09,0,0,0,549.5,8a4.12,4.12,0,1,0-8.23,0Zm9.6,0a5.49,5.49,0,1,1-5.44-5.34A5.38,5.38,0,0,1,550.87,8" transform="translate(-2 -1)"></path>
      <path id="path18" class="cls-2" d="M533.56,93.28H97.3v-90H533.56v90" transform="translate(-2 -1)"></path>
      <path id="path20" class="cls-1" d="M133.69,24.07a22.09,22.09,0,0,1,4.75-.66,11.6,11.6,0,0,1,6,1.53,9.72,9.72,0,0,1,4,4.5,15.8,15.8,0,0,1,1.45,6.75,12.11,12.11,0,0,1-3,8.48,9.16,9.16,0,0,1-7.06,3.24A23.71,23.71,0,0,1,137,47.7c-1-.12-2.09-.29-3.28-.52Zm16.5-4.14a39,39,0,0,0-12.63-1.66H115.3v3.25h3a5.51,5.51,0,0,1,4.36,1.63c.36.4,1,1.79,1,6.31v38c0,4.13-.45,5.47-.71,5.9-.92,1.37-2.42,2-4.6,2h-3v3.27H142V75.4H139a5.24,5.24,0,0,1-4.28-1.62c-.41-.4-1-1.76-1-6.31v-16c1.48.28,2.93.55,4.28.7a31.79,31.79,0,0,0,4.67.33c5.9,0,10.59-1.61,13.85-4.75a16.38,16.38,0,0,0,5-12.33,15,15,0,0,0-3.3-9.69,18,18,0,0,0-8-5.77" transform="translate(-2 -1)"></path>
      <path id="path22" class="cls-1" d="M215.75,17.88v3.3h3a5.41,5.41,0,0,1,4.33,1.6c.38.42,1,1.84,1,6.33V52.84c0,6.08-.53,10.42-1.6,12.94a12.64,12.64,0,0,1-5.89,6,20.14,20.14,0,0,1-9.93,2.41,15.64,15.64,0,0,1-7.22-1.51A11.48,11.48,0,0,1,195,68.89a15.72,15.72,0,0,1-2.15-6.52,57.54,57.54,0,0,1-.64-7.71V29.11c0-3.87.5-5.4.94-6,.84-1.29,2.28-1.91,4.36-1.91h3.07v-3.3H173.86v3.3h3c1.93,0,3.29.46,4.09,1.38.58.67,1.25,2.35,1.25,6.55V52c0,7.25.48,12.06,1.46,14.76A18.89,18.89,0,0,0,191,76.13c3.45,2.32,8.51,3.5,15,3.5,6,0,10.9-1.23,14.44-3.65a18.1,18.1,0,0,0,7.2-8.73c1.21-3.33,1.81-8,1.81-13.94V29.53c0-4.07.48-5.39.77-5.82a5,5,0,0,1,4.55-2.53h3v-3.3H215.75" transform="translate(-2 -1)"></path>
      <path id="path24" class="cls-1" d="M271.12,24a34.25,34.25,0,0,1,5.88-.72,11.35,11.35,0,0,1,8.4,3.18,11.22,11.22,0,0,1,3.17,8.35,10.71,10.71,0,0,1-3.92,8.6c-2.65,2.27-6.67,3.42-12,3.42l-1.55,0Zm33.5,49.13c-1.89-1.2-4.22-3.75-6.9-7.53,0,0-8.83-12.2-11.45-15.81,4.5-1.18,7.93-3,10.19-5.6a14.66,14.66,0,0,0,3.73-9.94,14,14,0,0,0-3.29-9.27A16.71,16.71,0,0,0,289,19.63c-3-.91-7.76-1.38-14.06-1.38h-22.2V21.5h3.05a5.39,5.39,0,0,1,4.31,1.63c.37.42,1,1.79,1,6.31v38c0,4.14-.46,5.45-.75,5.89-.91,1.37-2.38,2.05-4.55,2.05h-3.05v3.27h26.74V75.4h-3.11a5.32,5.32,0,0,1-4.25-1.62c-.36-.41-1-1.8-1-6.32V51.2a3.27,3.27,0,0,1,.44,0l1.19,0c.86,0,1.9,0,3.11-.08l19.93,27.49h17V75.48l-.76-.08a17.33,17.33,0,0,1-7.43-2.31" transform="translate(-2 -1)"></path>
      <path id="path26" class="cls-1" d="M328,18.27v3.25h2.9a7.19,7.19,0,0,1,3.55.95,2.9,2.9,0,0,1,1.38,1.44c.24.58.52,2,.52,5.57v38c0,4.36-.56,5.74-.87,6.15-.92,1.22-2.43,1.78-4.58,1.78H328v3.28h26.73V75.4h-2.94a7.17,7.17,0,0,1-3.49-.9,3.22,3.22,0,0,1-1.43-1.44c-.21-.6-.48-2-.48-5.59v-38c0-4.34.54-5.72.88-6.16a5.36,5.36,0,0,1,4.52-1.8h2.94V18.27H328" transform="translate(-2 -1)"></path>
      <path id="path28" class="cls-1" d="M440.45,18.27H418.32v3.25h2.87c2.07,0,3.57.52,4.46,1.55.38.43,1,1.8,1,6.25V60.8l-35-42.53H374.51v3.25h.85a13,13,0,0,1,3.55.37,14.09,14.09,0,0,1,3.64,1.66,26,26,0,0,1,3.51,3.64V67.61c0,4.11-.5,5.46-.8,5.89-.88,1.29-2.39,1.9-4.66,1.9h-2.87v3.27h22.12V75.4h-2.93a5.76,5.76,0,0,1-4.47-1.56c-.35-.4-.95-1.75-.95-6.23V33.76l37.82,45.87h2.77V29.32c0-4.09.49-5.45.8-5.89.88-1.27,2.4-1.91,4.61-1.91h2.95V18.27" transform="translate(-2 -1)"></path>
      <path id="path30" class="cls-1" d="M481,33.36l8.49,20.72H472Zm33.71,42a8.37,8.37,0,0,1-5.09-1.78c-1.27-1.08-2.71-3.54-4.29-7.33L485.17,17h-2.84L461.09,65.7c-1.76,4.13-3.33,6.91-4.72,8.2-.34.33-1.32,1-4.33,1.5l-.68.13v3.14h20.12V75.45l-.79,0c-3.29-.26-4.56-.75-5.05-1.15a2.14,2.14,0,0,1-1-1.71,13,13,0,0,1,1.4-4.79S469,61,469.86,59.08h21.71c.74,1.82,3.25,7.94,3.25,7.94a17,17,0,0,1,1.65,5.65,2.2,2.2,0,0,1-.89,1.75c-.47.37-1.59.87-4.27,1l-.8,0v3.23h25V75.44l-.79,0" transform="translate(-2 -1)"></path>
      <path id="path32" class="cls-3" d="M4,3.31v90H94v-90H4" transform="translate(-2 -1)"></path>
      <path id="path34" class="cls-1" d="M90.78,90.08H7.23V6.51H90.78V90.08" transform="translate(-2 -1)"></path>
      <path id="path36" class="cls-3" d="M36.15,86.86H10.44V61.16H36.15v25.7" transform="translate(-2 -1)"></path>
      <path id="path38" class="cls-3" d="M87.57,86.86H61.86V61.16H87.57v25.7" transform="translate(-2 -1)"></path>
      <path id="path40" class="cls-3" d="M61.86,61.16H36.15V35.43H61.86V61.16" transform="translate(-2 -1)"></path>
      <path id="path42" class="cls-3" d="M36.15,35.43H10.44V9.73H36.15v25.7" transform="translate(-2 -1)"></path>
      <path id="path44" class="cls-3" d="M87.57,35.43H61.86V9.73H87.57v25.7" transform="translate(-2 -1)"></path>
    </g>
  </g>
</svg>
